<svg width="520" height="520" viewBox="0 0 520 520" fill="none" xmlns="http://www.w3.org/2000/svg">
<g clip-path="url(#clip0)" filter="url(#filter0_d)">
<path d="M499.985 240.008H297.323C288.491 240.008 281.323 232.841 281.323 224.009C281.323 215.177 288.491 208.009 297.323 208.009H499.985C508.816 208.009 515.984 215.177 515.984 224.009C515.984 232.841 508.816 240.008 499.985 240.008Z" fill="white"/>
<path d="M419.987 320.006C415.889 320.006 411.796 318.447 408.679 315.315C402.429 309.061 402.429 298.928 408.679 292.679L477.372 223.989L408.679 155.296C402.429 149.046 402.429 138.914 408.679 132.664C414.932 126.41 425.065 126.41 431.315 132.664L511.312 212.662C517.562 218.911 517.562 229.044 511.312 235.294L431.315 315.291C428.178 318.447 424.085 320.006 419.987 320.006V320.006Z" fill="white"/>
<path d="M174.663 512C170.096 512 165.764 511.359 161.436 510.016L33.0538 467.243C15.5856 461.142 4 444.865 4 426.67V42.6824C4 19.1519 23.1361 0.0158081 46.6666 0.0158081C51.229 0.0158081 55.5609 0.656414 59.8928 2.00012L188.272 44.7722C205.744 50.8736 217.325 67.1504 217.325 85.3452V469.333C217.325 492.864 198.193 512 174.663 512ZM46.6666 32.0148C40.7996 32.0148 35.999 36.8154 35.999 42.6824V426.67C35.999 431.213 39.0497 435.436 43.4011 436.951L171.182 479.532C172.1 479.829 173.295 480.001 174.663 480.001C180.53 480.001 185.326 475.2 185.326 469.333V85.3452C185.326 80.8023 182.276 76.5798 177.924 75.0642L50.1431 32.4835C49.2251 32.1867 48.0299 32.0148 46.6666 32.0148V32.0148Z" fill="white"/>
<path d="M329.322 170.678C320.49 170.678 313.322 163.511 313.322 154.679V58.6819C313.322 43.9832 301.358 32.0148 286.659 32.0148H46.6666C37.8349 32.0148 30.6671 24.8471 30.6671 16.0153C30.6671 7.18355 37.8349 0.0158081 46.6666 0.0158081H286.659C319.021 0.0158081 345.321 26.3197 345.321 58.6819V154.679C345.321 163.511 338.154 170.678 329.322 170.678Z" fill="white"/>
<path d="M286.659 448.002H201.326C192.494 448.002 185.326 440.834 185.326 432.002C185.326 423.171 192.494 416.003 201.326 416.003H286.659C301.358 416.003 313.322 404.034 313.322 389.336V293.339C313.322 284.507 320.49 277.339 329.322 277.339C338.154 277.339 345.321 284.507 345.321 293.339V389.336C345.321 421.698 319.021 448.002 286.659 448.002V448.002Z" fill="white"/>
</g>
<defs>
<filter id="filter0_d" x="0" y="0" width="520" height="520" filterUnits="userSpaceOnUse" color-interpolation-filters="sRGB">
<feFlood flood-opacity="0" result="BackgroundImageFix"/>
<feColorMatrix in="SourceAlpha" type="matrix" values="0 0 0 0 0 0 0 0 0 0 0 0 0 0 0 0 0 0 127 0"/>
<feOffset dy="4"/>
<feGaussianBlur stdDeviation="2"/>
<feColorMatrix type="matrix" values="0 0 0 0 0 0 0 0 0 0 0 0 0 0 0 0 0 0 0.25 0"/>
<feBlend mode="normal" in2="BackgroundImageFix" result="effect1_dropShadow"/>
<feBlend mode="normal" in="SourceGraphic" in2="effect1_dropShadow" result="shape"/>
</filter>
<clipPath id="clip0">
<rect width="512" height="512" fill="white" transform="translate(4)"/>
</clipPath>
</defs>
</svg>
